<mxfile host="app.diagrams.net" modified="2021-03-19T17:00:01.595Z" agent="5.0 (Windows NT 10.0; Win64; x64) AppleWebKit/537.36 (KHTML, like Gecko) Chrome/89.0.4389.90 Safari/537.36" etag="2h4OEoBCgJWAtMRRB25B" version="14.4.9" type="github">
  <diagram name="Page-1" id="e7e014a7-5840-1c2e-5031-d8a46d1fe8dd">
    <mxGraphModel dx="868" dy="1276" grid="1" gridSize="10" guides="1" tooltips="1" connect="1" arrows="1" fold="1" page="1" pageScale="1" pageWidth="1169" pageHeight="826" background="#ffffff" math="0" shadow="0">
      <root>
        <mxCell id="0" />
        <mxCell id="1" parent="0" />
        <mxCell id="6MmxygO9DQHTs_CDxbk4-5" style="edgeStyle=orthogonalEdgeStyle;rounded=0;orthogonalLoop=1;jettySize=auto;html=1;exitX=0.5;exitY=1;exitDx=0;exitDy=0;entryX=0.5;entryY=0;entryDx=0;entryDy=0;" edge="1" parent="1" source="_qdsKKJTdr9DCj_0cPD0-41" target="6MmxygO9DQHTs_CDxbk4-1">
          <mxGeometry relative="1" as="geometry" />
        </mxCell>
        <mxCell id="_qdsKKJTdr9DCj_0cPD0-41" value="" style="ellipse;whiteSpace=wrap;html=1;aspect=fixed;fillColor=#000000;" parent="1" vertex="1">
          <mxGeometry x="380" y="-140" width="50" height="50" as="geometry" />
        </mxCell>
        <mxCell id="_qdsKKJTdr9DCj_0cPD0-46" style="edgeStyle=orthogonalEdgeStyle;rounded=0;orthogonalLoop=1;jettySize=auto;html=1;exitX=0.5;exitY=1;exitDx=0;exitDy=0;" parent="1" edge="1">
          <mxGeometry relative="1" as="geometry">
            <mxPoint x="400" y="220" as="targetPoint" />
            <mxPoint x="400" y="160" as="sourcePoint" />
          </mxGeometry>
        </mxCell>
        <mxCell id="_qdsKKJTdr9DCj_0cPD0-43" value="Ввод x" style="rounded=1;whiteSpace=wrap;html=1;gradientColor=none;fillColor=#FFFFFF;arcSize=50;" parent="1" vertex="1">
          <mxGeometry x="350" y="120" width="110" height="40" as="geometry" />
        </mxCell>
        <mxCell id="_qdsKKJTdr9DCj_0cPD0-49" style="edgeStyle=orthogonalEdgeStyle;rounded=0;orthogonalLoop=1;jettySize=auto;html=1;exitX=1;exitY=0.5;exitDx=0;exitDy=0;entryX=0.5;entryY=0;entryDx=0;entryDy=0;" parent="1" source="_qdsKKJTdr9DCj_0cPD0-47" target="_qdsKKJTdr9DCj_0cPD0-48" edge="1">
          <mxGeometry relative="1" as="geometry" />
        </mxCell>
        <mxCell id="_qdsKKJTdr9DCj_0cPD0-53" style="edgeStyle=orthogonalEdgeStyle;rounded=0;orthogonalLoop=1;jettySize=auto;html=1;exitX=0.5;exitY=1;exitDx=0;exitDy=0;fontSize=16;" parent="1" source="_qdsKKJTdr9DCj_0cPD0-47" edge="1">
          <mxGeometry relative="1" as="geometry">
            <mxPoint x="400" y="320" as="targetPoint" />
          </mxGeometry>
        </mxCell>
        <mxCell id="_qdsKKJTdr9DCj_0cPD0-47" value="" style="rhombus;whiteSpace=wrap;html=1;fillColor=#FFFFFF;gradientColor=none;" parent="1" vertex="1">
          <mxGeometry x="375" y="220" width="50" height="43" as="geometry" />
        </mxCell>
        <mxCell id="_qdsKKJTdr9DCj_0cPD0-57" style="edgeStyle=orthogonalEdgeStyle;rounded=0;orthogonalLoop=1;jettySize=auto;html=1;exitX=0.5;exitY=1;exitDx=0;exitDy=0;fontSize=16;" parent="1" source="_qdsKKJTdr9DCj_0cPD0-48" edge="1">
          <mxGeometry relative="1" as="geometry">
            <mxPoint x="625" y="400" as="targetPoint" />
          </mxGeometry>
        </mxCell>
        <mxCell id="_qdsKKJTdr9DCj_0cPD0-48" value="illegal value of x" style="rounded=1;whiteSpace=wrap;html=1;gradientColor=none;fillColor=#FFFFFF;arcSize=50;" parent="1" vertex="1">
          <mxGeometry x="570" y="293" width="110" height="40" as="geometry" />
        </mxCell>
        <mxCell id="_qdsKKJTdr9DCj_0cPD0-51" value="[x = 0]" style="text;html=1;strokeColor=none;fillColor=none;align=center;verticalAlign=middle;whiteSpace=wrap;rounded=0;perimeterSpacing=0;fontSize=16;" parent="1" vertex="1">
          <mxGeometry x="428" y="219" width="50" height="20" as="geometry" />
        </mxCell>
        <mxCell id="_qdsKKJTdr9DCj_0cPD0-54" value="[else]" style="text;html=1;strokeColor=none;fillColor=none;align=center;verticalAlign=middle;whiteSpace=wrap;rounded=0;perimeterSpacing=0;fontSize=16;" parent="1" vertex="1">
          <mxGeometry x="400" y="263" width="50" height="20" as="geometry" />
        </mxCell>
        <mxCell id="_qdsKKJTdr9DCj_0cPD0-59" value="" style="group" parent="1" vertex="1" connectable="0">
          <mxGeometry x="595" y="400" width="60" height="60" as="geometry" />
        </mxCell>
        <mxCell id="_qdsKKJTdr9DCj_0cPD0-58" value="" style="ellipse;whiteSpace=wrap;html=1;gradientColor=none;fontSize=16;fillColor=#FFFFFF;" parent="_qdsKKJTdr9DCj_0cPD0-59" vertex="1">
          <mxGeometry width="60" height="60" as="geometry" />
        </mxCell>
        <mxCell id="_qdsKKJTdr9DCj_0cPD0-56" value="" style="ellipse;whiteSpace=wrap;html=1;aspect=fixed;fontSize=16;fillColor=#000000;" parent="_qdsKKJTdr9DCj_0cPD0-59" vertex="1">
          <mxGeometry x="6.25" y="7" width="47.5" height="47.5" as="geometry" />
        </mxCell>
        <mxCell id="64BcI_9wWAsRSYKGbqmx-1" value="a := x&lt;br&gt;S, k := a, 1" style="rounded=1;whiteSpace=wrap;html=1;gradientColor=none;fillColor=#FFFFFF;arcSize=50;" parent="1" vertex="1">
          <mxGeometry x="345" y="320" width="110" height="40" as="geometry" />
        </mxCell>
        <mxCell id="64BcI_9wWAsRSYKGbqmx-16" style="edgeStyle=orthogonalEdgeStyle;rounded=0;orthogonalLoop=1;jettySize=auto;html=1;exitX=0.5;exitY=1;exitDx=0;exitDy=0;entryX=0.5;entryY=0;entryDx=0;entryDy=0;" parent="1" source="64BcI_9wWAsRSYKGbqmx-1" target="64BcI_9wWAsRSYKGbqmx-11" edge="1">
          <mxGeometry relative="1" as="geometry">
            <mxPoint x="400" y="440" as="sourcePoint" />
          </mxGeometry>
        </mxCell>
        <mxCell id="6MmxygO9DQHTs_CDxbk4-13" value="" style="edgeStyle=orthogonalEdgeStyle;rounded=0;orthogonalLoop=1;jettySize=auto;html=1;" edge="1" parent="1" source="64BcI_9wWAsRSYKGbqmx-9" target="6MmxygO9DQHTs_CDxbk4-12">
          <mxGeometry relative="1" as="geometry" />
        </mxCell>
        <mxCell id="64BcI_9wWAsRSYKGbqmx-9" value="a := a * (x * k / (k+1) **2)" style="rounded=1;whiteSpace=wrap;html=1;gradientColor=none;fillColor=#FFFFFF;arcSize=50;" parent="1" vertex="1">
          <mxGeometry x="323" y="600" width="155" height="40" as="geometry" />
        </mxCell>
        <mxCell id="6MmxygO9DQHTs_CDxbk4-8" style="edgeStyle=orthogonalEdgeStyle;rounded=0;orthogonalLoop=1;jettySize=auto;html=1;exitX=0.5;exitY=1;exitDx=0;exitDy=0;entryX=0.5;entryY=0;entryDx=0;entryDy=0;" edge="1" parent="1" source="64BcI_9wWAsRSYKGbqmx-11" target="6MmxygO9DQHTs_CDxbk4-7">
          <mxGeometry relative="1" as="geometry" />
        </mxCell>
        <mxCell id="64BcI_9wWAsRSYKGbqmx-11" value="" style="rhombus;whiteSpace=wrap;html=1;fillColor=#FFFFFF;gradientColor=none;" parent="1" vertex="1">
          <mxGeometry x="375" y="426" width="50" height="43" as="geometry" />
        </mxCell>
        <mxCell id="64BcI_9wWAsRSYKGbqmx-28" style="edgeStyle=orthogonalEdgeStyle;rounded=0;orthogonalLoop=1;jettySize=auto;html=1;exitX=0;exitY=0.5;exitDx=0;exitDy=0;entryX=0;entryY=0.5;entryDx=0;entryDy=0;" parent="1" source="6MmxygO9DQHTs_CDxbk4-7" target="64BcI_9wWAsRSYKGbqmx-11" edge="1">
          <mxGeometry relative="1" as="geometry">
            <Array as="points">
              <mxPoint x="280" y="532" />
              <mxPoint x="280" y="448" />
            </Array>
          </mxGeometry>
        </mxCell>
        <mxCell id="64BcI_9wWAsRSYKGbqmx-23" value="" style="group" parent="1" vertex="1" connectable="0">
          <mxGeometry x="370.5" y="910" width="60" height="60" as="geometry" />
        </mxCell>
        <mxCell id="64BcI_9wWAsRSYKGbqmx-24" value="" style="ellipse;whiteSpace=wrap;html=1;gradientColor=none;fontSize=16;fillColor=#FFFFFF;" parent="64BcI_9wWAsRSYKGbqmx-23" vertex="1">
          <mxGeometry width="60" height="60" as="geometry" />
        </mxCell>
        <mxCell id="64BcI_9wWAsRSYKGbqmx-25" value="" style="ellipse;whiteSpace=wrap;html=1;aspect=fixed;fontSize=16;fillColor=#000000;" parent="64BcI_9wWAsRSYKGbqmx-23" vertex="1">
          <mxGeometry x="6.25" y="7" width="47.5" height="47.5" as="geometry" />
        </mxCell>
        <mxCell id="64BcI_9wWAsRSYKGbqmx-27" value="[else]" style="text;html=1;strokeColor=none;fillColor=none;align=center;verticalAlign=middle;whiteSpace=wrap;rounded=0;perimeterSpacing=0;fontSize=16;" parent="1" vertex="1">
          <mxGeometry x="300" y="510" width="50" height="20" as="geometry" />
        </mxCell>
        <mxCell id="6MmxygO9DQHTs_CDxbk4-4" style="edgeStyle=orthogonalEdgeStyle;rounded=0;orthogonalLoop=1;jettySize=auto;html=1;entryX=0.5;entryY=0;entryDx=0;entryDy=0;" edge="1" parent="1" source="6MmxygO9DQHTs_CDxbk4-1" target="6MmxygO9DQHTs_CDxbk4-2">
          <mxGeometry relative="1" as="geometry" />
        </mxCell>
        <mxCell id="6MmxygO9DQHTs_CDxbk4-1" value="EULER :=&amp;nbsp;0.5772156649015328606" style="rounded=1;whiteSpace=wrap;html=1;gradientColor=none;fillColor=#FFFFFF;arcSize=50;" vertex="1" parent="1">
          <mxGeometry x="300" y="-40" width="210" height="40" as="geometry" />
        </mxCell>
        <mxCell id="6MmxygO9DQHTs_CDxbk4-3" style="edgeStyle=orthogonalEdgeStyle;rounded=0;orthogonalLoop=1;jettySize=auto;html=1;entryX=0.5;entryY=0;entryDx=0;entryDy=0;" edge="1" parent="1" source="6MmxygO9DQHTs_CDxbk4-2" target="_qdsKKJTdr9DCj_0cPD0-43">
          <mxGeometry relative="1" as="geometry" />
        </mxCell>
        <mxCell id="6MmxygO9DQHTs_CDxbk4-2" value="EPS :=&amp;nbsp;10&lt;sup&gt;-10&lt;/sup&gt;" style="rounded=1;whiteSpace=wrap;html=1;gradientColor=none;fillColor=#FFFFFF;arcSize=50;" vertex="1" parent="1">
          <mxGeometry x="350" y="40" width="110" height="40" as="geometry" />
        </mxCell>
        <mxCell id="6MmxygO9DQHTs_CDxbk4-6" value="[x &amp;gt; EPS]" style="text;html=1;strokeColor=none;fillColor=none;align=center;verticalAlign=middle;whiteSpace=wrap;rounded=0;perimeterSpacing=0;fontSize=16;" vertex="1" parent="1">
          <mxGeometry x="400" y="560" width="74.5" height="20" as="geometry" />
        </mxCell>
        <mxCell id="6MmxygO9DQHTs_CDxbk4-9" style="edgeStyle=orthogonalEdgeStyle;rounded=0;orthogonalLoop=1;jettySize=auto;html=1;exitX=0.5;exitY=1;exitDx=0;exitDy=0;entryX=0.5;entryY=0;entryDx=0;entryDy=0;" edge="1" parent="1" source="6MmxygO9DQHTs_CDxbk4-7" target="64BcI_9wWAsRSYKGbqmx-9">
          <mxGeometry relative="1" as="geometry" />
        </mxCell>
        <mxCell id="6MmxygO9DQHTs_CDxbk4-7" value="" style="rhombus;whiteSpace=wrap;html=1;fillColor=#FFFFFF;gradientColor=none;" vertex="1" parent="1">
          <mxGeometry x="375" y="510" width="50" height="43" as="geometry" />
        </mxCell>
        <mxCell id="6MmxygO9DQHTs_CDxbk4-16" value="" style="edgeStyle=orthogonalEdgeStyle;rounded=0;orthogonalLoop=1;jettySize=auto;html=1;" edge="1" parent="1" source="6MmxygO9DQHTs_CDxbk4-12" target="6MmxygO9DQHTs_CDxbk4-15">
          <mxGeometry relative="1" as="geometry" />
        </mxCell>
        <mxCell id="6MmxygO9DQHTs_CDxbk4-12" value="S := S + a" style="rounded=1;whiteSpace=wrap;html=1;gradientColor=none;fillColor=#FFFFFF;arcSize=50;" vertex="1" parent="1">
          <mxGeometry x="322.5" y="660" width="155" height="40" as="geometry" />
        </mxCell>
        <mxCell id="6MmxygO9DQHTs_CDxbk4-18" value="" style="edgeStyle=orthogonalEdgeStyle;rounded=0;orthogonalLoop=1;jettySize=auto;html=1;" edge="1" parent="1" source="6MmxygO9DQHTs_CDxbk4-15" target="6MmxygO9DQHTs_CDxbk4-17">
          <mxGeometry relative="1" as="geometry" />
        </mxCell>
        <mxCell id="6MmxygO9DQHTs_CDxbk4-15" value="k := k + 1" style="rounded=1;whiteSpace=wrap;html=1;gradientColor=none;fillColor=#FFFFFF;arcSize=50;" vertex="1" parent="1">
          <mxGeometry x="322.5" y="720" width="155" height="40" as="geometry" />
        </mxCell>
        <mxCell id="6MmxygO9DQHTs_CDxbk4-19" style="edgeStyle=orthogonalEdgeStyle;rounded=0;orthogonalLoop=1;jettySize=auto;html=1;exitX=0.5;exitY=1;exitDx=0;exitDy=0;" edge="1" parent="1" source="6MmxygO9DQHTs_CDxbk4-17">
          <mxGeometry relative="1" as="geometry">
            <mxPoint x="401" y="910" as="targetPoint" />
          </mxGeometry>
        </mxCell>
        <mxCell id="6MmxygO9DQHTs_CDxbk4-17" value="Вывод&lt;br&gt;Ei({x}) = {EULER + math.log(math.fabs(x)) + S}" style="rounded=1;whiteSpace=wrap;html=1;gradientColor=none;fillColor=#FFFFFF;arcSize=50;" vertex="1" parent="1">
          <mxGeometry x="261.5" y="820" width="278" height="40" as="geometry" />
        </mxCell>
      </root>
    </mxGraphModel>
  </diagram>
</mxfile>
